<?xml version="1.0" encoding="UTF-8" standalone="no"?>
<svg
   xmlns:dc="http://purl.org/dc/elements/1.1/"
   xmlns:cc="http://creativecommons.org/ns#"
   xmlns:rdf="http://www.w3.org/1999/02/22-rdf-syntax-ns#"
   xmlns:svg="http://www.w3.org/2000/svg"
   xmlns="http://www.w3.org/2000/svg"
   viewBox="0 0 512.00134 512.00134"
   height="512.00134"
   width="512.00134"
   xml:space="preserve"
   id="svg2"
   version="1.1"><metadata
     id="metadata8"><rdf:RDF><cc:Work
         rdf:about=""><dc:format>image/svg+xml</dc:format><dc:type
           rdf:resource="http://purl.org/dc/dcmitype/StillImage" /></cc:Work></rdf:RDF></metadata><defs
     id="defs6"><clipPath
       id="clipPath18"
       clipPathUnits="userSpaceOnUse"><path
         id="path16"
         d="M 0,384.001 H 384.001 V 0 H 0 Z" /></clipPath></defs><g
     transform="matrix(1.3333333,0,0,-1.3333333,0,512.00133)"
     id="g10"><g
       id="g12"><g
         clip-path="url(#clipPath18)"
         id="g14"><g
           transform="translate(302.6177,204.2305)"
           id="g20"><path
             id="path22"
             style="fill:#1e1e1e;fill-opacity:1;fill-rule:nonzero;stroke:none"
             d="M 0,0 C -0.937,26.411 -4.898,51.821 -11.582,74.907 -1.469,81.024 8.125,88.122 17.094,96.141 40.207,68.993 53.883,35.602 56.434,0 Z m -19.758,-123.125 c 6.871,-4.457 13.446,-9.437 19.68,-14.933 -13.094,-11.535 -27.703,-20.836 -43.363,-27.692 9.793,12.848 17.586,27.524 23.683,42.625 m -181.718,0 c 6.097,-15.101 13.89,-29.777 23.683,-42.625 -15.66,6.856 -30.269,16.153 -43.363,27.692 6.234,5.496 12.809,10.476 19.68,14.933 m -0.004,221.79 c -6.867,4.457 -13.442,9.437 -19.676,14.933 13.094,11.539 27.703,20.836 43.359,27.692 -9.793,-12.852 -17.582,-27.528 -23.683,-42.625 m 158.039,42.625 c 15.66,-6.856 30.269,-16.153 43.363,-27.692 -6.234,-5.496 -12.809,-10.476 -19.68,-14.933 -6.097,15.101 -13.89,29.777 -23.683,42.625 M -98.387,72.379 v 81.125 c 27.532,-7.937 46.649,-39.972 57.02,-66.679 -17.832,-8.106 -37.067,-13.02 -57.02,-14.446 m 0,-72.379 v 47.868 c 22.574,1.406 44.367,6.699 64.633,15.558 5.266,-19.629 8.43,-41.082 9.277,-63.426 z m 0,-72.328 v 47.868 h 73.91 c -0.847,-22.344 -4.011,-43.797 -9.277,-63.426 -20.266,8.859 -42.059,14.152 -64.633,15.558 m 0,-24.511 c 19.953,-1.426 39.188,-6.34 57.02,-14.446 -10.371,-26.711 -29.488,-58.742 -57.02,-66.679 z m -24.46,0 v -81.125 c -27.528,7.937 -46.649,39.968 -57.02,66.679 17.832,8.106 37.066,13.02 57.02,14.446 m 0,72.379 v -47.868 c -22.575,-1.406 -44.368,-6.699 -64.633,-15.558 -5.266,19.629 -8.43,41.082 -9.278,63.426 z m 0,72.328 V 0 h -73.911 c 0.848,22.344 4.012,43.797 9.278,63.426 20.265,-8.859 42.058,-14.152 64.633,-15.558 m 0,24.511 c -19.954,1.426 -39.188,6.34 -57.02,14.446 10.371,26.707 29.488,58.742 57.02,66.679 z m -115.481,23.762 c 8.969,-8.019 18.563,-15.117 28.676,-21.234 -6.684,-23.086 -10.645,-48.492 -11.582,-74.903 h -56.434 c 2.551,35.598 16.227,68.989 39.34,96.137 m -39.34,-120.601 h 56.434 c 0.937,-26.411 4.898,-51.817 11.582,-74.907 -10.113,-6.117 -19.707,-13.215 -28.676,-21.234 -23.113,27.148 -36.789,60.539 -39.34,96.141 m 294.762,-96.141 c -8.969,8.019 -18.563,15.117 -28.676,21.234 6.684,23.09 10.645,48.496 11.582,74.907 h 56.434 c -2.551,-35.602 -16.231,-68.993 -39.34,-96.141 m 8.023,244.105 c -75.015,75.016 -196.441,75.028 -271.468,0 -75.016,-75.015 -75.028,-196.441 0,-271.468 75.015,-75.016 196.441,-75.028 271.468,0 75.016,75.015 75.028,196.441 0,271.468" /></g></g></g></g></svg>