<svg xmlns="http://www.w3.org/2000/svg" xmlns:xlink="http://www.w3.org/1999/xlink" xmlns:dc="http://purl.org/dc/elements/1.1/" xmlns:cc="http://creativecommons.org/ns#" xmlns:rdf="http://www.w3.org/1999/02/22-rdf-syntax-ns#" xmlns:svg="http://www.w3.org/2000/svg"><defs><clipPath id="clipPath18" clipPathUnits="userSpaceOnUse"><path id="path16" d="M 0,384.001 H 384.001 V 0 H 0 Z"/></clipPath><clipPath id="clipPath42" clipPathUnits="userSpaceOnUse"><path id="path40" d="M 0,209.54 H 794.55 V 0 H 0 Z"/></clipPath></defs><symbol id="arrows" viewBox="0 0 45.596401 42.238266"><metadata id="metadata8"><rdf:RDF><cc:Work rdf:about=""><dc:format>image/svg+xml</dc:format><dc:type rdf:resource="http://purl.org/dc/dcmitype/StillImage"/></cc:Work></rdf:RDF></metadata><g transform="matrix(1.3333333,0,0,-1.3333333,0,42.238267)" id="g10"><g transform="translate(0,9.3708)" id="g12"><path id="path14" style="fill:#1e1e1e;fill-opacity:1;fill-rule:nonzero;stroke:none" d="M 0,0 7.419,-9.371 8.987,-8.13 4.135,-2 h 30.062 v 2 z"/></g><g transform="translate(26.7795,31.6791)" id="g16"><path id="path18" style="fill:#1e1e1e;fill-opacity:1;fill-rule:nonzero;stroke:none" d="m 0,0 -1.569,-1.242 4.852,-6.129 h -30.062 v -2 H 7.418 Z"/></g></g></symbol><symbol id="globus" viewBox="0 0 512.00134 512.00134"><metadata id="metadata8"><rdf:RDF><cc:Work rdf:about=""><dc:format>image/svg+xml</dc:format><dc:type rdf:resource="http://purl.org/dc/dcmitype/StillImage"/></cc:Work></rdf:RDF></metadata><g transform="matrix(1.3333333,0,0,-1.3333333,0,512.00133)" id="g10"><g id="g12"><g clip-path="url(#clipPath18)" id="g14"><g transform="translate(302.6177,204.2305)" id="g20"><path id="path22" style="fill:#1e1e1e;fill-opacity:1;fill-rule:nonzero;stroke:none" d="M 0,0 C -0.937,26.411 -4.898,51.821 -11.582,74.907 -1.469,81.024 8.125,88.122 17.094,96.141 40.207,68.993 53.883,35.602 56.434,0 Z m -19.758,-123.125 c 6.871,-4.457 13.446,-9.437 19.68,-14.933 -13.094,-11.535 -27.703,-20.836 -43.363,-27.692 9.793,12.848 17.586,27.524 23.683,42.625 m -181.718,0 c 6.097,-15.101 13.89,-29.777 23.683,-42.625 -15.66,6.856 -30.269,16.153 -43.363,27.692 6.234,5.496 12.809,10.476 19.68,14.933 m -0.004,221.79 c -6.867,4.457 -13.442,9.437 -19.676,14.933 13.094,11.539 27.703,20.836 43.359,27.692 -9.793,-12.852 -17.582,-27.528 -23.683,-42.625 m 158.039,42.625 c 15.66,-6.856 30.269,-16.153 43.363,-27.692 -6.234,-5.496 -12.809,-10.476 -19.68,-14.933 -6.097,15.101 -13.89,29.777 -23.683,42.625 M -98.387,72.379 v 81.125 c 27.532,-7.937 46.649,-39.972 57.02,-66.679 -17.832,-8.106 -37.067,-13.02 -57.02,-14.446 m 0,-72.379 v 47.868 c 22.574,1.406 44.367,6.699 64.633,15.558 5.266,-19.629 8.43,-41.082 9.277,-63.426 z m 0,-72.328 v 47.868 h 73.91 c -0.847,-22.344 -4.011,-43.797 -9.277,-63.426 -20.266,8.859 -42.059,14.152 -64.633,15.558 m 0,-24.511 c 19.953,-1.426 39.188,-6.34 57.02,-14.446 -10.371,-26.711 -29.488,-58.742 -57.02,-66.679 z m -24.46,0 v -81.125 c -27.528,7.937 -46.649,39.968 -57.02,66.679 17.832,8.106 37.066,13.02 57.02,14.446 m 0,72.379 v -47.868 c -22.575,-1.406 -44.368,-6.699 -64.633,-15.558 -5.266,19.629 -8.43,41.082 -9.278,63.426 z m 0,72.328 V 0 h -73.911 c 0.848,22.344 4.012,43.797 9.278,63.426 20.265,-8.859 42.058,-14.152 64.633,-15.558 m 0,24.511 c -19.954,1.426 -39.188,6.34 -57.02,14.446 10.371,26.707 29.488,58.742 57.02,66.679 z m -115.481,23.762 c 8.969,-8.019 18.563,-15.117 28.676,-21.234 -6.684,-23.086 -10.645,-48.492 -11.582,-74.903 h -56.434 c 2.551,35.598 16.227,68.989 39.34,96.137 m -39.34,-120.601 h 56.434 c 0.937,-26.411 4.898,-51.817 11.582,-74.907 -10.113,-6.117 -19.707,-13.215 -28.676,-21.234 -23.113,27.148 -36.789,60.539 -39.34,96.141 m 294.762,-96.141 c -8.969,8.019 -18.563,15.117 -28.676,21.234 6.684,23.09 10.645,48.496 11.582,74.907 h 56.434 c -2.551,-35.602 -16.231,-68.993 -39.34,-96.141 m 8.023,244.105 c -75.015,75.016 -196.441,75.028 -271.468,0 -75.016,-75.015 -75.028,-196.441 0,-271.468 75.015,-75.016 196.441,-75.028 271.468,0 75.016,75.015 75.028,196.441 0,271.468"/></g></g></g></g></symbol><symbol id="logo" viewBox="0 0 1059.4 279.38666"><metadata id="metadata8"><rdf:RDF><cc:Work rdf:about=""><dc:format>image/svg+xml</dc:format><dc:type rdf:resource="http://purl.org/dc/dcmitype/StillImage"/></cc:Work></rdf:RDF></metadata><g transform="matrix(1.3333333,0,0,-1.3333333,0,279.38667)" id="g10"><path id="path12" style="fill:#4664af;fill-opacity:1;fill-rule:nonzero;stroke:none" d="M 0,0 H 58.72 V 29.36 H 0 Z"/><path id="path14" style="fill:#4664af;fill-opacity:1;fill-rule:nonzero;stroke:none" d="M 117.439,0 H 264.238 V 29.36 H 117.439 Z"/><path id="path16" style="fill:#4664af;fill-opacity:1;fill-rule:nonzero;stroke:none" d="m 322.958,0 h 190.84 v 29.36 h -190.84 z"/><path id="path18" style="fill:#4664af;fill-opacity:1;fill-rule:nonzero;stroke:none" d="M 572.517,0 H 792.716 V 29.36 H 572.517 Z"/><g transform="translate(392.688,205.8694)" id="g20"><path id="path22" style="fill:#1e1e1e;fill-opacity:1;fill-rule:nonzero;stroke:none" d="m 0,0 h -110.1 v -26.913 h 40.37 v -105.206 h 29.36 V -26.913 H 0 Z"/></g><g transform="translate(91.1376,205.8696)" id="g24"><path id="path26" style="fill:#1e1e1e;fill-opacity:1;fill-rule:nonzero;stroke:none" d="M 0,0 -61.778,-85.667 V 0 h -29.36 v -132.119 h 26.302 l 61.778,85.666 v -85.666 h 29.36 L 26.302,0 Z"/></g><g transform="translate(513.7974,178.9563)" id="g28"><path id="path30" style="fill:#1e1e1e;fill-opacity:1;fill-rule:nonzero;stroke:none" d="M 0,0 V 26.913 H -102.76 V -105.206 H 0 v 26.913 h -73.399 v 26.302 h 70.952 v 25.689 H -73.399 V 0 Z"/></g><g transform="translate(234.8789,205.8694)" id="g32"><path id="path34" style="fill:#1e1e1e;fill-opacity:1;fill-rule:nonzero;stroke:none" d="M 0,0 V -50.768 H -57.497 V 0 h -29.359 v -132.119 h 29.359 v 53.215 H 0 v -53.215 H 29.359 L 29.359,0 Z"/></g><g id="g36"><g clip-path="url(#clipPath42)" id="g38"><g transform="translate(724.2095,98.2171)" id="g44"><path id="path46" style="fill:#1e1e1e;fill-opacity:1;fill-rule:nonzero;stroke:none" d="m 0,0 c -26.097,0 -40.981,19.297 -40.981,41.593 0,22.296 14.884,41.594 40.981,41.594 26.096,0 40.981,-19.298 40.981,-41.594 C 40.981,19.297 26.096,0 0,0 m 0,111.322 c -39.759,0 -70.342,-31.218 -70.342,-69.729 0,-38.511 30.583,-69.73 70.342,-69.73 39.758,0 70.341,31.219 70.341,69.73 0,38.511 -30.583,69.729 -70.341,69.729"/></g><g transform="translate(657.5376,205.8694)" id="g48"><path id="path50" style="fill:#1e1e1e;fill-opacity:1;fill-rule:nonzero;stroke:none" d="M 0,0 H -35.118 L -73.311,-51.991 H -86.856 V 0 h -29.36 v -132.272 h 29.36 v 51.992 h 13.545 l 38.193,-51.992 H 0 l -49.614,66.136 z"/></g></g></g></g></symbol></svg>