<?xml version="1.0" encoding="UTF-8" standalone="no"?>
<svg
   xmlns:dc="http://purl.org/dc/elements/1.1/"
   xmlns:cc="http://creativecommons.org/ns#"
   xmlns:rdf="http://www.w3.org/1999/02/22-rdf-syntax-ns#"
   xmlns:svg="http://www.w3.org/2000/svg"
   xmlns="http://www.w3.org/2000/svg"
   viewBox="0 0 1059.4 279.38666"
   height="279.38666"
   width="1059.4"
   xml:space="preserve"
   id="svg2"
   version="1.1"><metadata
     id="metadata8"><rdf:RDF><cc:Work
         rdf:about=""><dc:format>image/svg+xml</dc:format><dc:type
           rdf:resource="http://purl.org/dc/dcmitype/StillImage" /></cc:Work></rdf:RDF></metadata><defs
     id="defs6"><clipPath
       id="clipPath42"
       clipPathUnits="userSpaceOnUse"><path
         id="path40"
         d="M 0,209.54 H 794.55 V 0 H 0 Z" /></clipPath></defs><g
     transform="matrix(1.3333333,0,0,-1.3333333,0,279.38667)"
     id="g10"><path
       id="path12"
       style="fill:#4664af;fill-opacity:1;fill-rule:nonzero;stroke:none"
       d="M 0,0 H 58.72 V 29.36 H 0 Z" /><path
       id="path14"
       style="fill:#4664af;fill-opacity:1;fill-rule:nonzero;stroke:none"
       d="M 117.439,0 H 264.238 V 29.36 H 117.439 Z" /><path
       id="path16"
       style="fill:#4664af;fill-opacity:1;fill-rule:nonzero;stroke:none"
       d="m 322.958,0 h 190.84 v 29.36 h -190.84 z" /><path
       id="path18"
       style="fill:#4664af;fill-opacity:1;fill-rule:nonzero;stroke:none"
       d="M 572.517,0 H 792.716 V 29.36 H 572.517 Z" /><g
       transform="translate(392.688,205.8694)"
       id="g20"><path
         id="path22"
         style="fill:#1e1e1e;fill-opacity:1;fill-rule:nonzero;stroke:none"
         d="m 0,0 h -110.1 v -26.913 h 40.37 v -105.206 h 29.36 V -26.913 H 0 Z" /></g><g
       transform="translate(91.1376,205.8696)"
       id="g24"><path
         id="path26"
         style="fill:#1e1e1e;fill-opacity:1;fill-rule:nonzero;stroke:none"
         d="M 0,0 -61.778,-85.667 V 0 h -29.36 v -132.119 h 26.302 l 61.778,85.666 v -85.666 h 29.36 L 26.302,0 Z" /></g><g
       transform="translate(513.7974,178.9563)"
       id="g28"><path
         id="path30"
         style="fill:#1e1e1e;fill-opacity:1;fill-rule:nonzero;stroke:none"
         d="M 0,0 V 26.913 H -102.76 V -105.206 H 0 v 26.913 h -73.399 v 26.302 h 70.952 v 25.689 H -73.399 V 0 Z" /></g><g
       transform="translate(234.8789,205.8694)"
       id="g32"><path
         id="path34"
         style="fill:#1e1e1e;fill-opacity:1;fill-rule:nonzero;stroke:none"
         d="M 0,0 V -50.768 H -57.497 V 0 h -29.359 v -132.119 h 29.359 v 53.215 H 0 v -53.215 H 29.359 L 29.359,0 Z" /></g><g
       id="g36"><g
         clip-path="url(#clipPath42)"
         id="g38"><g
           transform="translate(724.2095,98.2171)"
           id="g44"><path
             id="path46"
             style="fill:#1e1e1e;fill-opacity:1;fill-rule:nonzero;stroke:none"
             d="m 0,0 c -26.097,0 -40.981,19.297 -40.981,41.593 0,22.296 14.884,41.594 40.981,41.594 26.096,0 40.981,-19.298 40.981,-41.594 C 40.981,19.297 26.096,0 0,0 m 0,111.322 c -39.759,0 -70.342,-31.218 -70.342,-69.729 0,-38.511 30.583,-69.73 70.342,-69.73 39.758,0 70.341,31.219 70.341,69.73 0,38.511 -30.583,69.729 -70.341,69.729" /></g><g
           transform="translate(657.5376,205.8694)"
           id="g48"><path
             id="path50"
             style="fill:#1e1e1e;fill-opacity:1;fill-rule:nonzero;stroke:none"
             d="M 0,0 H -35.118 L -73.311,-51.991 H -86.856 V 0 h -29.36 v -132.272 h 29.36 v 51.992 h 13.545 l 38.193,-51.992 H 0 l -49.614,66.136 z" /></g></g></g></g></svg>